<?xml version="1.0" encoding="utf-8"?>
<!-- Generator: Adobe Illustrator 25.2.2, SVG Export Plug-In . SVG Version: 6.00 Build 0)  -->
<svg version="1.1" xmlns="http://www.w3.org/2000/svg" xmlns:xlink="http://www.w3.org/1999/xlink" x="0px" y="0px"
	 viewBox="0 0 677.1 687.8" style="enable-background:new 0 0 677.1 687.8;" xml:space="preserve">
<style type="text/css">
	.st0{fill:#FFFFFF;}
	.st1{fill:#1E5099;}
	.st2{fill:#F39F07;}
	.st3{fill:#194187;}
</style>
<g id="Ebene_2">
	<circle class="st0" cx="290.4" cy="289.2" r="277.9"/>
	<path class="st1" d="M568.3,289.2c0-41-8.9-79.9-24.8-114.9c-50.7,9.4-135.5,37.5-244.9,107.3C125,392.3,102.8,449.1,104,462.4
		c0.7,7.9,8.1,29.5,28,55.2c44.9,31.2,99.5,49.5,158.4,49.5C443.9,567.1,568.3,442.7,568.3,289.2z"/>
	<g>
		<g>
			<path class="st2" d="M316.4,360.5c-26.6,0-48-14-54.6-35.6c-1.4-4.5-7.4-20.4-9-22.9c-1.8-1.4-10.3-7.1-39.3-16.7
				c-32.6-10.8-32.2-47.1-32.2-47.4l0-1.1l0.7-0.8c0.1-0.2,13.8-17,11-29c-1.1-4.9-8.9-11.1-16-11.1c-0.4,0-0.8,0-1.2,0.1
				c-6.8,0.8-12.9,6.1-13,6.2l-3.5,3.2l-1.6-4.5c-0.2-0.7-5.3-15.9,3.9-36c-7.8-3.5-26.8-13.9-30.1-33.3c-0.9-5.4,0.3-10.6,3.5-15
				c4.1-5.6,11.3-9.6,19.3-10.7c0.4-0.1,0.8-0.1,1.2-0.1c10.3,0,26.9,18.8,33.3,26.6c6.7-5.2,14.5-10.2,23.2-14.8
				c5.4-2.9,10.9-4.9,16.4-6.1c-1.9-9.8-6.4-37.2,0.7-47.6c1.7-2.5,4.1-4.1,6.9-4.5c5.6-0.9,9.3-1.2,12.4-1.2
				c9,0,14.3,3.4,17.7,11.2c1.4,3.3,1.7,8.9,2,17.9c0.1,3.1,0.2,6.4,0.4,9.5c0.6,9.6,1.1,18.8,1.3,22.5
				c36.9,21.9,59.5,76.4,61.2,80.6c1.6,2.8,23.1,36.1,37.3,58.1c10,15.6,13.9,33.8,10.9,51.3c-2.9,17.6-12.4,32.2-26.6,41.3
				C342.5,356.9,329.6,360.5,316.4,360.5z"/>
			<path class="st0" d="M248.4,61.2c7.4,0,11.7,2.3,14.8,9.3c1.8,4.2,1.5,15.9,2.1,26.3c0.8,12.5,1.4,24.2,1.4,24.2
				c37.9,21.3,61.4,80.1,61.4,80.1c1.2,2.3,37.6,58.5,37.6,58.5c19.7,30.9,13.1,70.4-14.7,88.2c-9.9,6.3-22.3,9.6-34.6,9.6
				c-22.4,0-44.7-10.7-51.6-33.4c-1.2-3.9-8.2-23-9.8-24.3c-1.6-1.3-9.8-7.3-40.6-17.4s-30-44.4-30-44.4s14.8-18,11.7-31.7
				c-1.5-6.6-10.8-13.6-19-13.6c-0.5,0-1.1,0-1.6,0.1c-8,0.9-14.7,7-14.7,7s-5.5-16,5.3-36.6c0,0-27.6-9.8-31.3-32.2
				c-2.1-12.8,9.6-20.6,20.1-22c0.3,0,0.5-0.1,0.8-0.1c10.8,0,32.8,27.9,32.8,27.9c6.8-5.5,15-11.1,25.1-16.4
				c6.4-3.4,12.7-5.5,18.7-6.4c0,0-10.8-49.2,4.3-51.5C241.2,61.7,245.1,61.2,248.4,61.2 M248.4,54.9L248.4,54.9
				c-3.3,0-7.2,0.4-12.9,1.3c-3.7,0.6-6.8,2.6-9,5.9c-4.1,6.1-5.4,16.7-3.8,32.6c0.6,5.5,1.3,10.6,2,14.4c-4.8,1.3-9.6,3.2-14.3,5.7
				c-7.8,4.1-14.9,8.6-21.2,13.3c-2.3-2.7-5.4-6.1-8.8-9.6c-14-14.2-20.9-15.9-25-15.9c-0.6,0-1.1,0-1.6,0.1
				c-8.8,1.2-16.8,5.7-21.4,12c-3.7,5.1-5.1,11.1-4.1,17.4c3.1,18.8,19.8,29.6,29.1,34.3c-8,19.8-3,34.8-2.8,35.5l3.1,9l7.1-6.4
				c1.5-1.3,6.4-4.8,11.2-5.4c0.3,0,0.6,0,0.9,0c5.4,0,12,5,12.9,8.7c2,8.6-7.1,22.2-10.4,26.2l-1.4,1.7l-0.1,2.2
				c0,0.4-0.2,9.9,3.9,20.7c5.5,14.7,16,25,30.5,29.8c26.6,8.8,35.6,14.2,37.9,15.8c1.9,3.6,7.2,17.8,8.4,21.7
				c3.7,12.1,11.6,22.1,22.8,28.8c10,6,22,9.1,34.9,9.1c13.8,0,27.3-3.7,38-10.5c30.8-19.6,38.2-63.1,16.7-96.9
				c-13.9-21.5-34.9-54-37.2-57.8c-2.3-5.7-24.7-58.4-61-81c-0.2-4.4-0.7-12.5-1.2-20.9c-0.2-3.1-0.3-6.3-0.4-9.4
				c-0.3-9.3-0.6-15.2-2.2-19C265,58.9,258.7,54.9,248.4,54.9L248.4,54.9z"/>
		</g>
		<path class="st0" d="M221.2,189.3c0,0-2.5-39.4,30.8-46.7s43.4,17.3,43.4,22.6C295.5,170.4,275.5,220.4,221.2,189.3z"/>
		<g>
			<path class="st0" d="M222,286.5c0.4,0.2,0.9,0.5,1.5,0.7c0.5,0.2,1.1,0.4,1.6,0.7c1.1,0.4,2.2,0.8,3.4,1.1
				c2.3,0.7,4.7,1.1,7.1,1.5c4.8,0.7,9.7,0.8,14.6,0.2l1.8-0.2c0.6-0.1,1.2-0.2,1.8-0.3c1.2-0.2,2.4-0.4,3.6-0.7
				c2.4-0.6,4.8-1.1,7.2-2c1.2-0.4,2.4-0.7,3.5-1.2l3.5-1.4l1.7-0.7l1.6-0.8c1.1-0.6,2.2-1.1,3.3-1.7c4.2-2.5,8.2-5.5,11.7-9.1
				c3.4-3.6,6.4-7.6,8.9-12c2.4-4.4,4.4-9.1,5.7-14c1.3-4.9,2.2-10,1.9-15.1c0.6,2.5,0.9,5.1,0.9,7.8c0.1,1.3,0,2.6,0,4
				c-0.1,1.3-0.3,2.6-0.4,3.9c-0.7,5.2-2.2,10.4-4.5,15.3c-0.5,1.3-1.2,2.4-1.8,3.6l-1,1.8l-1.1,1.7c-1.4,2.3-3.1,4.4-4.9,6.5
				c-3.7,4-7.9,7.5-12.4,10.5c-1.2,0.7-2.4,1.3-3.6,2l-1.8,1l-1.8,0.8l-3.7,1.6c-1.2,0.5-2.5,0.9-3.8,1.4c-2.5,1-5.1,1.6-7.8,2.3
				c-1.3,0.3-2.7,0.5-4,0.8c-0.7,0.1-1.3,0.3-2,0.4l-2,0.2c-5.4,0.6-10.9,0.7-16.3-0.2c-2.7-0.5-5.4-1-8-1.8
				c-1.3-0.4-2.6-0.8-3.9-1.4c-0.6-0.3-1.3-0.5-1.9-0.8c-0.7-0.3-1.2-0.6-2-1L222,286.5z"/>
		</g>
		<path class="st3" d="M203.1,253.6c0,0,8.7-17.1,40.9-22c0,0,2.3,24.5-4,40.4C240.1,272,217.3,272.2,203.1,253.6z"/>
		<path class="st3" d="M230.4,184.6c0,0-1.9-29.6,23.1-35c25-5.5,32.6,13,32.6,16.9C286,170.4,271.1,207.9,230.4,184.6z"/>
		<path class="st3" d="M150.5,242.2c0,0-11.3-22.2,6.1-34.7c17.4-12.6,29.4-0.9,30.8,2.2S189.6,246.6,150.5,242.2z"/>
	</g>
	<path class="st3" d="M108.7,445.7c-4,8.1-5,13.6-4.7,16.7c0.7,7.9,8.1,29.5,28,55.2c23.8,16.5,50.3,29.5,78.7,37.9
		C151.7,506.9,122.8,469.9,108.7,445.7z"/>
</g>
<g id="Ebene_3">
</g>
</svg>
